<?xml version="1.0" encoding="UTF-8"?>
<!DOCTYPE svg PUBLIC "-//W3C//DTD SVG 1.1//EN" "http://www.w3.org/Graphics/SVG/1.1/DTD/svg11.dtd">
<svg xmlns="http://www.w3.org/2000/svg" version="1.1" width="905px" height="339px" style="shape-rendering:geometricPrecision; text-rendering:geometricPrecision; image-rendering:optimizeQuality; fill-rule:evenodd; clip-rule:evenodd" xmlns:xlink="http://www.w3.org/1999/xlink">
<g><path style="opacity:0.502" fill="#fcfdfc" d="M 903.5,-0.5 C 903.833,-0.5 904.167,-0.5 904.5,-0.5C 904.5,112.5 904.5,225.5 904.5,338.5C 602.833,338.5 301.167,338.5 -0.5,338.5C -0.5,338.167 -0.5,337.833 -0.5,337.5C 300.833,337.5 602.167,337.5 903.5,337.5C 903.5,224.833 903.5,112.167 903.5,-0.5 Z"/></g>
<g><path style="opacity:1" fill="#6a6dd6" d="M 219.5,9.5 C 231.13,7.31469 239.463,11.4814 244.5,22C 243.303,23.5199 241.803,24.6866 240,25.5C 234.255,14.6946 226.255,12.6946 216,19.5C 212.644,26.8048 211.644,34.4715 213,42.5C 216.243,50.2084 222.077,53.3751 230.5,52C 232.587,51.2078 234.421,50.0412 236,48.5C 237.34,45.7981 238.673,43.1315 240,40.5C 241.667,41.1667 243.333,41.8333 245,42.5C 242.83,52.1552 236.663,57.4885 226.5,58.5C 215.633,57.8067 208.799,52.14 206,41.5C 202.672,27.4302 207.172,16.7635 219.5,9.5 Z"/></g>
<g><path style="opacity:1" fill="#adb0e8" d="M 685.5,10.5 C 687.833,10.5 690.167,10.5 692.5,10.5C 692.5,12.8333 692.5,15.1667 692.5,17.5C 690.167,17.5 687.833,17.5 685.5,17.5C 685.5,15.1667 685.5,12.8333 685.5,10.5 Z"/></g>
<g><path style="opacity:1" fill="#6c6fd7" d="M 519.5,10.5 C 521.467,10.2606 523.301,10.5939 525,11.5C 525.667,26.5 525.667,41.5 525,56.5C 522.959,57.4231 520.792,57.7564 518.5,57.5C 518.719,56.325 518.386,55.325 517.5,54.5C 503.549,59.0753 496.215,53.9087 495.5,39C 497.789,24.9445 505.289,20.7779 518,26.5C 518.215,21.0849 518.715,15.7516 519.5,10.5 Z M 506.5,28.5 C 511.126,27.7004 514.96,29.0337 518,32.5C 518.878,38.3024 518.378,43.969 516.5,49.5C 510.936,52.8266 506.436,51.8266 503,46.5C 501.54,39.8448 502.707,33.8448 506.5,28.5 Z"/></g>
<g><path style="opacity:1" fill="#5e63d3" d="M 686.5,11.5 C 688.167,11.5 689.833,11.5 691.5,11.5C 691.5,13.1667 691.5,14.8333 691.5,16.5C 689.833,16.5 688.167,16.5 686.5,16.5C 686.5,14.8333 686.5,13.1667 686.5,11.5 Z"/></g>
<g><path style="opacity:1" fill="#ffd33b" d="M 60.5,215.5 C 59.8333,204.326 59.1667,192.993 58.5,181.5C 57.5008,194.817 57.1675,208.15 57.5,221.5C 57.5,257.5 57.5,293.5 57.5,329.5C 50.5,329.5 43.5,329.5 36.5,329.5C 36.3794,276.832 36.0461,224.165 35.5,171.5C 21.4897,165.236 12.323,154.569 8,139.5C 4.84262,128.021 3.84262,116.354 5,104.5C 8.66667,74.5 12.3333,44.5 16,14.5C 19.4935,12.623 23.3268,11.9564 27.5,12.5C 27.5257,45.8372 27.859,79.1705 28.5,112.5C 30.7925,112.756 32.9592,112.423 35,111.5C 36.8592,78.7783 39.3592,46.1117 42.5,13.5C 46.1904,12.0041 49.6904,12.3374 53,14.5C 55.166,45.8224 57.166,77.1558 59,108.5C 59.8722,113.418 62.2055,114.418 66,111.5C 67.3415,78.5157 67.8415,45.5157 67.5,12.5C 70.5184,12.3354 73.5184,12.502 76.5,13C 77.6241,13.8388 78.2908,15.0055 78.5,16.5C 82.8286,49.7955 86.8286,83.1289 90.5,116.5C 89.9109,134.44 83.9109,150.274 72.5,164C 68.8333,166.167 65.1667,168.333 61.5,170.5C 60.5007,185.485 60.1673,200.485 60.5,215.5 Z"/></g>
<g><path style="opacity:1" fill="#ffd43b" d="M 177.5,329.5 C 170.151,329.549 162.817,329.882 155.5,330.5C 154.619,297.509 154.286,264.509 154.5,231.5C 141.92,231.822 129.42,231.489 117,230.5C 116.058,184.48 116.391,138.48 118,92.5C 121.471,63.7422 134.305,40.2422 156.5,22C 163.383,17.7623 170.716,14.5956 178.5,12.5C 177.957,118.166 177.624,223.833 177.5,329.5 Z"/></g>
<g><path style="opacity:1" fill="#6d70d6" d="M 594.5,22.5 C 603.079,20.9578 609.413,23.9578 613.5,31.5C 612.833,32.8333 611.833,33.8333 610.5,34.5C 608.35,32.8509 606.35,31.0176 604.5,29C 595.798,26.8377 591.465,30.171 591.5,39C 591.213,45.6152 594.046,50.1152 600,52.5C 604.797,51.7031 607.63,48.8698 608.5,44C 610.134,43.5065 611.801,43.3398 613.5,43.5C 611.902,55.476 605.235,59.6426 593.5,56C 585.215,50.1413 582.715,42.3079 586,32.5C 587.978,28.3619 590.811,25.0286 594.5,22.5 Z"/></g>
<g><path style="opacity:1" fill="#6b6ed6" d="M 662.5,22.5 C 671.859,20.8728 678.192,24.3728 681.5,33C 677.776,35.5287 675.276,34.6954 674,30.5C 668.72,27.3257 664.053,27.9924 660,32.5C 659.333,37.5 659.333,42.5 660,47.5C 664.512,52.3904 669.345,52.7237 674.5,48.5C 674.886,44.1499 677.219,42.4832 681.5,43.5C 679.501,55.0042 672.834,59.1709 661.5,56C 652.157,49.0927 649.99,40.2594 655,29.5C 657.396,26.9334 659.896,24.6 662.5,22.5 Z"/></g>
<g><path style="opacity:1" fill="#adb0e8" d="M 685.5,22.5 C 687.833,22.5 690.167,22.5 692.5,22.5C 692.5,34.1667 692.5,45.8333 692.5,57.5C 690.167,57.5 687.833,57.5 685.5,57.5C 685.5,45.8333 685.5,34.1667 685.5,22.5 Z"/></g>
<g><path style="opacity:1" fill="#6b6ed6" d="M 259.5,22.5 C 278.328,22.4866 285.161,31.4866 280,49.5C 270.667,60.1667 261.333,60.1667 252,49.5C 247.511,38.4473 250.011,29.4473 259.5,22.5 Z M 261.5,28.5 C 273.017,27.8532 277.517,33.1866 275,44.5C 272.86,50.4872 268.693,52.6539 262.5,51C 260.508,50.4257 259.008,49.259 258,47.5C 255.215,40.3573 256.381,34.024 261.5,28.5 Z"/></g>
<g><path style="opacity:1" fill="#7072d7" d="M 288.5,22.5 C 292.375,21.8742 294.209,23.5408 294,27.5C 300.781,21.3007 307.448,21.634 314,28.5C 315.54,38.0427 315.706,47.5427 314.5,57C 312.559,57.7429 310.726,57.5762 309,56.5C 308.832,47.8142 308.332,39.1475 307.5,30.5C 303.108,27.6737 298.941,28.0071 295,31.5C 294.667,39.8333 294.333,48.1667 294,56.5C 292,57.8333 290,57.8333 288,56.5C 287.19,45.0905 287.357,33.7572 288.5,22.5 Z"/></g>
<g><path style="opacity:1" fill="#6b6ed6" d="M 331.5,22.5 C 339.657,21.6009 345.991,24.4342 350.5,31C 349.667,32.5 348.5,33.6667 347,34.5C 344.926,32.5479 342.759,30.7146 340.5,29C 335.269,27.2762 331.435,28.7762 329,33.5C 328.249,38.5715 328.582,43.5715 330,48.5C 337.042,53.4105 342.209,51.9105 345.5,44C 347.134,43.5065 348.801,43.3398 350.5,43.5C 347.734,56.8353 340.067,60.3353 327.5,54C 320.549,46.2092 319.716,37.7092 325,28.5C 327.063,26.2659 329.229,24.2659 331.5,22.5 Z"/></g>
<g><path style="opacity:1" fill="#7375d8" d="M 355.5,22.5 C 357.467,22.2606 359.301,22.5939 361,23.5C 361.333,31.8333 361.667,40.1667 362,48.5C 367.441,52.9258 372.108,52.2591 376,46.5C 376.333,38.8333 376.667,31.1667 377,23.5C 379,22.1667 381,22.1667 383,23.5C 383.82,34.7431 383.653,45.9098 382.5,57C 378.857,58.3566 376.69,57.1899 376,53.5C 369.49,58.4761 363.157,58.1427 357,52.5C 354.602,42.5671 354.102,32.5671 355.5,22.5 Z"/></g>
<g><path style="opacity:1" fill="#7274d8" d="M 391.5,22.5 C 394.86,21.7904 396.693,23.1238 397,26.5C 400.842,21.4051 404.675,21.2384 408.5,26C 408.355,26.772 408.022,27.4387 407.5,28C 403.74,27.806 400.574,28.9727 398,31.5C 397.667,39.8333 397.333,48.1667 397,56.5C 395,57.8333 393,57.8333 391,56.5C 390.19,45.0905 390.357,33.7572 391.5,22.5 Z"/></g>
<g><path style="opacity:1" fill="#6a6ed6" d="M 417.5,22.5 C 424.026,21.9216 429.859,23.5882 435,27.5C 435.874,30.0031 435.207,32.0031 433,33.5C 429.212,28.8468 424.378,27.3468 418.5,29C 417.065,31.2672 417.398,33.2672 419.5,35C 424.768,35.8673 429.768,37.5339 434.5,40C 439.492,45.1381 439.158,50.1381 433.5,55C 425.348,59.2099 418.182,58.0432 412,51.5C 410.872,49.6547 410.372,47.6547 410.5,45.5C 414.537,45.6926 417.537,47.5259 419.5,51C 424.164,52.2606 428.164,51.2606 431.5,48C 431.265,47.1268 430.931,46.2935 430.5,45.5C 423.602,43.9273 417.435,40.9273 412,36.5C 411.598,35.1279 411.098,33.7946 410.5,32.5C 412.05,28.6167 414.384,25.2833 417.5,22.5 Z"/></g>
<g><path style="opacity:1" fill="#6b6ed6" d="M 451.5,22.5 C 470.328,22.4866 477.161,31.4866 472,49.5C 462.667,60.1667 453.333,60.1667 444,49.5C 439.511,38.4473 442.011,29.4473 451.5,22.5 Z M 453.5,28.5 C 465.017,27.8532 469.517,33.1866 467,44.5C 464.86,50.4872 460.693,52.6539 454.5,51C 452.508,50.4257 451.008,49.259 450,47.5C 447.215,40.3573 448.381,34.024 453.5,28.5 Z"/></g>
<g><path style="opacity:1" fill="#666ad5" d="M 561.5,40.5 C 553.5,40.5 545.5,40.5 537.5,40.5C 537.263,41.791 537.596,42.791 538.5,43.5C 539.974,50.5793 544.308,53.0793 551.5,51C 553.5,50.3333 554.833,49 555.5,47C 561.067,44.2859 562.567,45.7859 560,51.5C 558.457,53.3783 556.624,54.8783 554.5,56C 537.51,58.6755 530.01,51.5088 532,34.5C 536.372,22.7982 544.205,19.6315 555.5,25C 560.573,29.2614 562.573,34.428 561.5,40.5 Z M 549.5,35.5 C 545.351,36.0803 541.684,35.4136 538.5,33.5C 539.117,31.7708 540.117,30.2708 541.5,29C 545.711,28.0786 549.711,28.5786 553.5,30.5C 556.277,34.7551 554.944,36.4218 549.5,35.5 Z"/></g>
<g><path style="opacity:1" fill="#6a6dd6" d="M 626.5,22.5 C 644.722,22.2199 651.556,30.8866 647,48.5C 638.373,59.5435 629.04,60.2102 619,50.5C 613.778,38.9808 616.278,29.6475 626.5,22.5 Z M 628.5,27.5 C 633.907,27.1252 638.073,29.1252 641,33.5C 641.826,38.5893 641.492,43.5893 640,48.5C 633.293,53.3129 627.959,52.3129 624,45.5C 622.325,38.6032 623.825,32.6032 628.5,27.5 Z"/></g>
<g><path style="opacity:1" fill="#5e63d3" d="M 686.5,23.5 C 688.167,23.5 689.833,23.5 691.5,23.5C 691.5,34.5 691.5,45.5 691.5,56.5C 689.833,56.5 688.167,56.5 686.5,56.5C 686.5,45.5 686.5,34.5 686.5,23.5 Z"/></g>
<g><path style="opacity:1" fill="#6f71d7" d="M 701.5,22.5 C 704.86,21.7904 706.693,23.1238 707,26.5C 713.504,21.5265 719.837,21.8598 726,27.5C 728.312,37.3055 728.812,47.1389 727.5,57C 725.559,57.7429 723.726,57.5762 722,56.5C 721.667,48.5 721.333,40.5 721,32.5C 720.06,29.5583 718.06,28.2249 715,28.5C 712.186,28.4076 709.853,29.4076 708,31.5C 706.727,39.7309 706.06,48.0642 706,56.5C 704.333,57.8333 702.667,57.8333 701,56.5C 700.19,45.0905 700.357,33.7572 701.5,22.5 Z"/></g>
<g><path style="opacity:1" fill="#6a6dd6" d="M 743.5,22.5 C 748.162,22.9625 752.829,23.4625 757.5,24C 759.286,24.7845 760.786,25.9512 762,27.5C 763.099,37.1909 763.766,46.8576 764,56.5C 761.152,57.2567 758.819,56.2567 757,53.5C 750.716,57.6974 744.216,58.1974 737.5,55C 734.197,51.205 733.697,47.0383 736,42.5C 741.913,38.7512 748.413,36.5846 755.5,36C 756.866,33.6182 756.533,31.4515 754.5,29.5C 751.227,28.4149 747.894,28.2483 744.5,29C 742.537,32.4741 739.537,34.3074 735.5,34.5C 735.372,32.3453 735.872,30.3453 737,28.5C 739.063,26.2659 741.229,24.2659 743.5,22.5 Z M 751.5,41.5 C 752.833,41.5 754.167,41.5 755.5,41.5C 757.585,48.5391 754.918,51.8724 747.5,51.5C 741.554,52.0738 739.721,49.7404 742,44.5C 745.245,43.4283 748.411,42.4283 751.5,41.5 Z"/></g>
<g><path style="opacity:1" fill="#9fa2e4" d="M 538.5,33.5 C 541.684,35.4136 545.351,36.0803 549.5,35.5C 545.702,36.4834 541.702,36.8168 537.5,36.5C 537.263,35.209 537.596,34.209 538.5,33.5 Z"/></g>
<g><path style="opacity:1" fill="#a9ace7" d="M 561.5,40.5 C 553.612,40.8467 545.946,41.8467 538.5,43.5C 537.596,42.791 537.263,41.791 537.5,40.5C 545.5,40.5 553.5,40.5 561.5,40.5 Z"/></g>
<g><path style="opacity:1" fill="#8b8c8b" d="M 439.5,111.5 C 442.5,111.5 445.5,111.5 448.5,111.5C 448.5,115.167 448.5,118.833 448.5,122.5C 445.5,122.5 442.5,122.5 439.5,122.5C 439.5,118.833 439.5,115.167 439.5,111.5 Z"/></g>
<g><path style="opacity:1" fill="#8b8c8b" d="M 460.5,111.5 C 463.5,111.5 466.5,111.5 469.5,111.5C 469.5,134.833 469.5,158.167 469.5,181.5C 466.5,181.5 463.5,181.5 460.5,181.5C 460.5,158.167 460.5,134.833 460.5,111.5 Z"/></g>
<g><path style="opacity:1" fill="#8b8c8b" d="M 481.5,111.5 C 484.5,111.5 487.5,111.5 490.5,111.5C 490.5,134.833 490.5,158.167 490.5,181.5C 487.5,181.5 484.5,181.5 481.5,181.5C 481.5,158.167 481.5,134.833 481.5,111.5 Z"/></g>
<g><path style="opacity:1" fill="#8e8f8e" d="M 689.5,111.5 C 692.5,111.5 695.5,111.5 698.5,111.5C 698.5,134.833 698.5,158.167 698.5,181.5C 695.5,181.5 692.5,181.5 689.5,181.5C 689.5,158.167 689.5,134.833 689.5,111.5 Z"/></g>
<g><path style="opacity:1" fill="#ffd43c" d="M 730.5,111.5 C 742.505,111.333 754.505,111.5 766.5,112C 767.5,112.5 768.5,113 769.5,113.5C 776.761,123.937 783.428,134.77 789.5,146C 776.854,148.572 766.02,154.405 757,163.5C 747.333,149.5 737.667,135.5 728,121.5C 726.861,117.579 727.695,114.246 730.5,111.5 Z"/></g>
<g><path style="opacity:1" fill="#ffd43c" d="M 827.5,111.5 C 839.171,111.333 850.838,111.5 862.5,112C 866.212,114.558 867.378,118.058 866,122.5C 856.419,135.993 847.086,149.66 838,163.5C 828.971,154.569 818.138,149.236 805.5,147.5C 811.573,134.754 818.906,122.754 827.5,111.5 Z"/></g>
<g><path style="opacity:1" fill="#919191" d="M 241.5,112.5 C 233.167,112.5 224.833,112.5 216.5,112.5C 216.5,135.167 216.5,157.833 216.5,180.5C 225.167,180.5 233.833,180.5 242.5,180.5C 233.682,181.493 224.682,181.827 215.5,181.5C 215.5,158.167 215.5,134.833 215.5,111.5C 224.349,111.174 233.016,111.507 241.5,112.5 Z"/></g>
<g><path style="opacity:1" fill="#212121" d="M 241.5,112.5 C 253.958,111.211 261.624,116.544 264.5,128.5C 263.936,130.819 263.436,133.153 263,135.5C 261.444,138.898 259.277,141.898 256.5,144.5C 270.878,153.649 272.211,164.483 260.5,177C 254.892,180.043 248.892,181.209 242.5,180.5C 233.833,180.5 225.167,180.5 216.5,180.5C 216.5,157.833 216.5,135.167 216.5,112.5C 224.833,112.5 233.167,112.5 241.5,112.5 Z M 239.5,120.5 C 248.217,118.567 253.551,121.901 255.5,130.5C 255.109,133.781 253.776,136.615 251.5,139C 247.168,139.583 242.835,140.083 238.5,140.5C 234.167,140.5 229.833,140.5 225.5,140.5C 225.5,133.833 225.5,127.167 225.5,120.5C 230.167,120.5 234.833,120.5 239.5,120.5 Z M 239.5,149.5 C 243.835,149.917 248.168,150.417 252.5,151C 260.796,158.882 260.13,165.882 250.5,172C 247.518,172.498 244.518,172.665 241.5,172.5C 236.167,172.5 230.833,172.5 225.5,172.5C 225.5,164.833 225.5,157.167 225.5,149.5C 230.167,149.5 234.833,149.5 239.5,149.5 Z"/></g>
<g><path style="opacity:1" fill="#282828" d="M 417.5,176.5 C 404.126,185.561 393.293,182.895 385,168.5C 381.667,160.167 381.667,151.833 385,143.5C 390.357,131.496 399.191,127.663 411.5,132C 413.286,132.785 414.786,133.951 416,135.5C 417.079,132.937 417.579,130.271 417.5,127.5C 418.487,122.695 418.821,117.695 418.5,112.5C 420.833,112.5 423.167,112.5 425.5,112.5C 425.5,135.167 425.5,157.833 425.5,180.5C 423.167,180.5 420.833,180.5 418.5,180.5C 418.768,178.901 418.434,177.568 417.5,176.5 Z M 399.5,137.5 C 407.663,136.164 413.497,139.164 417,146.5C 417.667,153.167 417.667,159.833 417,166.5C 412.767,174.023 406.6,176.189 398.5,173C 395.533,170.9 393.7,168.066 393,164.5C 392.333,158.5 392.333,152.5 393,146.5C 394.581,143.084 396.748,140.084 399.5,137.5 Z"/></g>
<g><path style="opacity:1" fill="#8f8f8f" d="M 417.5,176.5 C 418.434,177.568 418.768,178.901 418.5,180.5C 420.833,180.5 423.167,180.5 425.5,180.5C 425.5,157.833 425.5,135.167 425.5,112.5C 423.167,112.5 420.833,112.5 418.5,112.5C 418.821,117.695 418.487,122.695 417.5,127.5C 417.5,122.167 417.5,116.833 417.5,111.5C 420.5,111.5 423.5,111.5 426.5,111.5C 426.5,134.833 426.5,158.167 426.5,181.5C 423.5,181.5 420.5,181.5 417.5,181.5C 417.5,179.833 417.5,178.167 417.5,176.5 Z"/></g>
<g><path style="opacity:1" fill="#191b19" d="M 440.5,112.5 C 442.833,112.5 445.167,112.5 447.5,112.5C 447.5,115.5 447.5,118.5 447.5,121.5C 445.167,121.5 442.833,121.5 440.5,121.5C 440.5,118.5 440.5,115.5 440.5,112.5 Z"/></g>
<g><path style="opacity:1" fill="#191b19" d="M 461.5,112.5 C 463.833,112.5 466.167,112.5 468.5,112.5C 468.5,135.167 468.5,157.833 468.5,180.5C 466.167,180.5 463.833,180.5 461.5,180.5C 461.5,157.833 461.5,135.167 461.5,112.5 Z"/></g>
<g><path style="opacity:1" fill="#191b19" d="M 482.5,112.5 C 484.833,112.5 487.167,112.5 489.5,112.5C 489.5,135.167 489.5,157.833 489.5,180.5C 487.167,180.5 484.833,180.5 482.5,180.5C 482.5,157.833 482.5,135.167 482.5,112.5 Z"/></g>
<g><path style="opacity:1" fill="#2f2f2f" d="M 615.5,111.5 C 618.448,111.223 621.281,111.556 624,112.5C 624.667,135.167 624.667,157.833 624,180.5C 621.599,181.602 619.099,181.769 616.5,181C 615.751,179.266 615.251,177.433 615,175.5C 605.133,184.802 595.466,184.469 586,174.5C 579.311,162.618 578.977,150.618 585,138.5C 593.788,129.095 603.454,128.095 614,135.5C 614.198,127.422 614.698,119.422 615.5,111.5 Z M 597.5,137.5 C 606.117,136.056 611.95,139.389 615,147.5C 616.011,155 615.345,162.333 613,169.5C 601.447,178.175 593.78,175.509 590,161.5C 588.805,154.491 589.805,147.825 593,141.5C 594.397,139.93 595.897,138.596 597.5,137.5 Z"/></g>
<g><path style="opacity:1" fill="#202120" d="M 690.5,112.5 C 692.833,112.5 695.167,112.5 697.5,112.5C 697.5,135.167 697.5,157.833 697.5,180.5C 695.167,180.5 692.833,180.5 690.5,180.5C 690.5,157.833 690.5,135.167 690.5,112.5 Z"/></g>
<g><path style="opacity:1" fill="#838383" d="M 239.5,120.5 C 234.833,120.5 230.167,120.5 225.5,120.5C 225.5,127.167 225.5,133.833 225.5,140.5C 229.833,140.5 234.167,140.5 238.5,140.5C 234.03,141.486 229.363,141.819 224.5,141.5C 224.5,134.167 224.5,126.833 224.5,119.5C 229.695,119.179 234.695,119.513 239.5,120.5 Z"/></g>
<g><path style="opacity:1" fill="#2e2e2e" d="M 294.5,129.5 C 312.373,129.04 322.039,137.707 323.5,155.5C 322.061,175.785 311.395,184.285 291.5,181C 278.557,174.505 273.39,164.005 276,149.5C 278.578,139.425 284.744,132.759 294.5,129.5 Z M 293.5,137.5 C 309.906,137.094 316.406,145.094 313,161.5C 310.019,173.407 302.852,176.907 291.5,172C 288.892,170.622 287.392,168.455 287,165.5C 284.513,157.152 285.18,149.152 289,141.5C 290.667,140.267 292.167,138.933 293.5,137.5 Z"/></g>
<g><path style="opacity:1" fill="#2c2c2c" d="M 374.5,178.5 C 373.448,180.256 371.781,180.923 369.5,180.5C 366.654,180.191 365.154,178.525 365,175.5C 355.875,182.051 346.041,183.217 335.5,179C 326.8,169.475 327.8,161.142 338.5,154C 346.757,152.068 355.09,150.568 363.5,149.5C 364.449,144.734 363.116,140.9 359.5,138C 354.833,137.333 350.167,137.333 345.5,138C 342.404,140.029 340.738,142.862 340.5,146.5C 338.5,146.167 336.5,145.833 334.5,145.5C 333.833,144.833 333.167,144.167 332.5,143.5C 333.905,136.26 338.238,131.76 345.5,130C 353.13,128.913 360.463,129.913 367.5,133C 369.378,134.543 370.878,136.376 372,138.5C 373.033,151.847 373.866,165.18 374.5,178.5 Z M 359.5,156.5 C 361.167,156.5 362.833,156.5 364.5,156.5C 364.5,158.167 364.5,159.833 364.5,161.5C 361.602,172.998 354.268,177.165 342.5,174C 338.261,169.296 338.595,164.962 343.5,161C 348.868,159.492 354.201,157.992 359.5,156.5 Z"/></g>
<g><path style="opacity:1" fill="#8b8c8b" d="M 439.5,130.5 C 442.5,130.5 445.5,130.5 448.5,130.5C 448.5,147.5 448.5,164.5 448.5,181.5C 445.5,181.5 442.5,181.5 439.5,181.5C 439.5,164.5 439.5,147.5 439.5,130.5 Z"/></g>
<g><path style="opacity:1" fill="#2d2d2d" d="M 518.5,129.5 C 527.497,128.112 535.331,130.445 542,136.5C 543.153,139.711 543.82,143.044 544,146.5C 544.333,156.5 544.667,166.5 545,176.5C 546.543,178.089 546.543,179.423 545,180.5C 540.208,182.089 536.875,180.422 535,175.5C 527.749,181.11 519.582,182.944 510.5,181C 501.191,176.283 498.691,169.116 503,159.5C 505.778,156.193 509.278,154.026 513.5,153C 518.809,151.871 524.143,150.871 529.5,150C 534.115,148.923 535.615,146.09 534,141.5C 533.692,140.692 533.192,140.025 532.5,139.5C 526.569,137.082 520.569,136.915 514.5,139C 512.628,141.293 511.128,143.793 510,146.5C 507.263,145.44 504.43,144.606 501.5,144C 504.643,136.011 510.31,131.177 518.5,129.5 Z M 530.5,156.5 C 531.833,156.5 533.167,156.5 534.5,156.5C 534.5,158.833 534.5,161.167 534.5,163.5C 531.188,173.824 524.188,177.324 513.5,174C 509.5,169.667 509.5,165.333 513.5,161C 519.17,159.434 524.837,157.934 530.5,156.5 Z"/></g>
<g><path style="opacity:1" fill="#2a2a2a" d="M 679.5,150.5 C 679.5,152.833 679.5,155.167 679.5,157.5C 667.322,157.172 655.322,157.505 643.5,158.5C 644.666,170.598 651.333,175.764 663.5,174C 667.314,171.02 670.981,167.854 674.5,164.5C 676.661,165.035 678.661,165.868 680.5,167C 671.726,182.367 659.393,186.034 643.5,178C 632.636,166.874 630.802,154.374 638,140.5C 649.212,126.902 661.545,125.902 675,137.5C 677.992,141.31 679.492,145.643 679.5,150.5 Z M 670.5,148.5 C 662.231,150.47 653.565,151.136 644.5,150.5C 644.5,149.5 644.5,148.5 644.5,147.5C 646.316,141 650.316,137.333 656.5,136.5C 664.479,136.801 669.145,140.801 670.5,148.5 Z"/></g>
<g><path style="opacity:1" fill="#191b19" d="M 440.5,131.5 C 442.833,131.5 445.167,131.5 447.5,131.5C 447.5,147.833 447.5,164.167 447.5,180.5C 445.167,180.5 442.833,180.5 440.5,180.5C 440.5,164.167 440.5,147.833 440.5,131.5 Z"/></g>
<g><path style="opacity:1" fill="#7d7d7d" d="M 332.5,143.5 C 333.167,144.167 333.833,144.833 334.5,145.5C 333.325,145.719 332.325,145.386 331.5,144.5C 331.624,143.893 331.957,143.56 332.5,143.5 Z"/></g>
<g><path style="opacity:1" fill="#838383" d="M 239.5,149.5 C 234.833,149.5 230.167,149.5 225.5,149.5C 225.5,157.167 225.5,164.833 225.5,172.5C 230.833,172.5 236.167,172.5 241.5,172.5C 236.025,173.489 230.358,173.822 224.5,173.5C 224.5,165.167 224.5,156.833 224.5,148.5C 229.695,148.179 234.695,148.513 239.5,149.5 Z"/></g>
<g><path style="opacity:1" fill="#888888" d="M 644.5,147.5 C 644.5,148.5 644.5,149.5 644.5,150.5C 653.565,151.136 662.231,150.47 670.5,148.5C 671.404,149.209 671.737,150.209 671.5,151.5C 662.167,151.5 652.833,151.5 643.5,151.5C 643.232,149.901 643.566,148.568 644.5,147.5 Z"/></g>
<g><path style="opacity:1" fill="#777777" d="M 359.5,156.5 C 361.265,155.539 363.265,155.205 365.5,155.5C 365.795,157.735 365.461,159.735 364.5,161.5C 364.5,159.833 364.5,158.167 364.5,156.5C 362.833,156.5 361.167,156.5 359.5,156.5 Z"/></g>
<g><path style="opacity:1" fill="#ffd43c" d="M 787.5,155.5 C 817.117,153.308 836.283,166.308 845,194.5C 846.919,225.514 832.752,244.348 802.5,251C 774.096,251.556 756.596,238.056 750,210.5C 747.616,189.767 755.116,173.601 772.5,162C 777.642,159.906 782.642,157.74 787.5,155.5 Z M 795.5,175.5 C 797.371,175.859 798.871,176.859 800,178.5C 801.912,182.66 804.079,186.66 806.5,190.5C 811.811,191.034 816.978,192.034 822,193.5C 822.706,195.971 822.373,198.305 821,200.5C 817.488,202.679 814.654,205.512 812.5,209C 813.839,214.515 814.172,220.015 813.5,225.5C 807.979,224.076 802.646,222.076 797.5,219.5C 792.107,222.367 786.44,224.367 780.5,225.5C 780.821,219.151 780.987,212.818 781,206.5C 777.651,203.318 774.484,199.985 771.5,196.5C 771.865,195.098 772.699,194.098 774,193.5C 778.542,192.66 783.042,191.66 787.5,190.5C 790.956,185.922 793.622,180.922 795.5,175.5 Z"/></g>
<g><path style="opacity:1" fill="#808080" d="M 530.5,156.5 C 531.919,155.549 533.585,155.216 535.5,155.5C 535.806,158.385 535.473,161.052 534.5,163.5C 534.5,161.167 534.5,158.833 534.5,156.5C 533.167,156.5 531.833,156.5 530.5,156.5 Z"/></g>
<g><path style="opacity:1" fill="#919191" d="M 679.5,150.5 C 680.473,152.948 680.806,155.615 680.5,158.5C 668.167,158.5 655.833,158.5 643.5,158.5C 655.322,157.505 667.322,157.172 679.5,157.5C 679.5,155.167 679.5,152.833 679.5,150.5 Z"/></g>
<g><path style="opacity:1" fill="#a0a0a0" d="M 374.5,178.5 C 375.404,179.209 375.737,180.209 375.5,181.5C 373.265,181.795 371.265,181.461 369.5,180.5C 371.781,180.923 373.448,180.256 374.5,178.5 Z"/></g>
<g><path style="opacity:1" fill="#ffd957" d="M 60.5,215.5 C 60.6653,219.182 60.4986,222.848 60,226.5C 59.9504,224.256 59.1171,222.589 57.5,221.5C 57.1675,208.15 57.5008,194.817 58.5,181.5C 59.1667,192.993 59.8333,204.326 60.5,215.5 Z"/></g>
<g><path style="opacity:1" fill="#8d8d8d" d="M 225.5,219.5 C 222.5,219.5 219.5,219.5 216.5,219.5C 216.5,242.167 216.5,264.833 216.5,287.5C 219.167,287.5 221.833,287.5 224.5,287.5C 224.17,271.658 224.504,255.991 225.5,240.5C 225.5,256.5 225.5,272.5 225.5,288.5C 222.167,288.5 218.833,288.5 215.5,288.5C 215.5,265.167 215.5,241.833 215.5,218.5C 219.042,218.187 222.375,218.521 225.5,219.5 Z"/></g>
<g><path style="opacity:1" fill="#252525" d="M 225.5,219.5 C 227.766,219.141 229.599,219.808 231,221.5C 236.944,239.165 242.777,256.832 248.5,274.5C 249.167,277.167 249.833,277.167 250.5,274.5C 256.223,256.832 262.056,239.165 268,221.5C 269.401,219.808 271.234,219.141 273.5,219.5C 276.167,219.5 278.833,219.5 281.5,219.5C 281.5,242.167 281.5,264.833 281.5,287.5C 278.833,287.5 276.167,287.5 273.5,287.5C 273.83,271.991 273.496,256.658 272.5,241.5C 272.664,238.813 272.497,236.146 272,233.5C 266,250.833 260,268.167 254,285.5C 251.32,288.562 248.153,289.228 244.5,287.5C 238.641,269.091 232.475,250.757 226,232.5C 225.503,235.146 225.336,237.813 225.5,240.5C 224.504,255.991 224.17,271.658 224.5,287.5C 221.833,287.5 219.167,287.5 216.5,287.5C 216.5,264.833 216.5,242.167 216.5,219.5C 219.5,219.5 222.5,219.5 225.5,219.5 Z"/></g>
<g><path style="opacity:1" fill="#8c8c8c" d="M 273.5,219.5 C 276.287,218.523 279.287,218.19 282.5,218.5C 282.5,241.833 282.5,265.167 282.5,288.5C 279.167,288.5 275.833,288.5 272.5,288.5C 272.5,272.833 272.5,257.167 272.5,241.5C 273.496,256.658 273.83,271.991 273.5,287.5C 276.167,287.5 278.833,287.5 281.5,287.5C 281.5,264.833 281.5,242.167 281.5,219.5C 278.833,219.5 276.167,219.5 273.5,219.5 Z"/></g>
<g><path style="opacity:1" fill="#202020" d="M 411.5,227.5 C 411.5,231.167 411.5,234.833 411.5,238.5C 414.167,238.5 416.833,238.5 419.5,238.5C 419.5,240.167 419.5,241.833 419.5,243.5C 417.585,243.216 415.919,243.549 414.5,244.5C 414.167,244.5 413.833,244.5 413.5,244.5C 412.176,248.107 411.509,252.107 411.5,256.5C 411.501,260.681 411.834,264.681 412.5,268.5C 412.335,271.85 412.502,275.183 413,278.5C 413.995,279.066 414.828,279.733 415.5,280.5C 416.919,281.451 418.585,281.784 420.5,281.5C 420.263,282.791 420.596,283.791 421.5,284.5C 421.414,285.496 421.748,286.329 422.5,287C 417.475,290.178 412.475,290.178 407.5,287C 405.393,285.736 404.393,283.903 404.5,281.5C 404.5,268.833 404.5,256.167 404.5,243.5C 402.5,243.5 400.5,243.5 398.5,243.5C 398.5,241.833 398.5,240.167 398.5,238.5C 400.5,238.5 402.5,238.5 404.5,238.5C 404.5,235.833 404.5,233.167 404.5,230.5C 404.34,228.801 404.506,227.134 405,225.5C 407.185,224.072 409.185,222.405 411,220.5C 411.497,222.81 411.663,225.143 411.5,227.5 Z"/></g>
<g><path style="opacity:1" fill="#2e2e2e" d="M 310.5,236.5 C 328.373,236.04 338.039,244.707 339.5,262.5C 338.061,282.785 327.395,291.285 307.5,288C 294.557,281.505 289.39,271.005 292,256.5C 294.578,246.425 300.744,239.759 310.5,236.5 Z M 309.5,244.5 C 325.906,244.094 332.406,252.094 329,268.5C 326.019,280.407 318.852,283.907 307.5,279C 304.892,277.622 303.392,275.455 303,272.5C 300.513,264.152 301.18,256.152 305,248.5C 306.667,247.267 308.167,245.933 309.5,244.5 Z"/></g>
<g><path style="opacity:1" fill="#202020" d="M 388.5,255.5 C 388.5,266.167 388.5,276.833 388.5,287.5C 386.167,287.5 383.833,287.5 381.5,287.5C 381.827,277.652 381.494,267.986 380.5,258.5C 380.332,246.83 374.665,242.664 363.5,246C 358.634,249.231 356.634,253.731 357.5,259.5C 356.506,268.652 356.173,277.985 356.5,287.5C 354.167,287.5 351.833,287.5 349.5,287.5C 349.5,271.167 349.5,254.833 349.5,238.5C 351.95,238.298 354.283,238.631 356.5,239.5C 356.34,241.199 356.506,242.866 357,244.5C 365.861,234.612 375.528,233.945 386,242.5C 388.174,246.546 389.007,250.879 388.5,255.5 Z"/></g>
<g><path style="opacity:1" fill="#939393" d="M 411.5,227.5 C 412.479,230.625 412.813,233.958 412.5,237.5C 415.167,237.5 417.833,237.5 420.5,237.5C 420.5,239.833 420.5,242.167 420.5,244.5C 418.5,244.5 416.5,244.5 414.5,244.5C 415.919,243.549 417.585,243.216 419.5,243.5C 419.5,241.833 419.5,240.167 419.5,238.5C 416.833,238.5 414.167,238.5 411.5,238.5C 411.5,234.833 411.5,231.167 411.5,227.5 Z"/></g>
<g><path style="opacity:1" fill="#2a2a2a" d="M 471.5,259.5 C 471.5,261.167 471.5,262.833 471.5,264.5C 459.167,264.5 446.833,264.5 434.5,264.5C 434.263,265.791 434.596,266.791 435.5,267.5C 437.399,278.882 444.066,283.382 455.5,281C 458.52,278.977 460.854,276.31 462.5,273C 464.81,272.503 467.143,272.337 469.5,272.5C 469.833,273.167 470.167,273.833 470.5,274.5C 467.838,284.937 461.005,289.937 450,289.5C 434.064,287.667 425.898,278.667 425.5,262.5C 425.923,248.42 432.923,239.753 446.5,236.5C 461.637,236.976 469.97,244.643 471.5,259.5 Z M 462.5,255.5 C 458.386,256.826 453.886,257.493 449,257.5C 444.114,257.493 439.614,256.826 435.5,255.5C 439.909,243.978 447.575,241.145 458.5,247C 460.246,249.659 461.58,252.492 462.5,255.5 Z"/></g>
<g><path style="opacity:1" fill="#8d8d8d" d="M 356.5,239.5 C 354.283,238.631 351.95,238.298 349.5,238.5C 349.5,254.833 349.5,271.167 349.5,287.5C 351.833,287.5 354.167,287.5 356.5,287.5C 356.173,277.985 356.506,268.652 357.5,259.5C 357.5,269.167 357.5,278.833 357.5,288.5C 354.5,288.5 351.5,288.5 348.5,288.5C 348.5,271.5 348.5,254.5 348.5,237.5C 351.698,236.964 354.365,237.631 356.5,239.5 Z"/></g>
<g><path style="opacity:1" fill="#949494" d="M 404.5,230.5 C 404.5,233.167 404.5,235.833 404.5,238.5C 402.5,238.5 400.5,238.5 398.5,238.5C 398.5,240.167 398.5,241.833 398.5,243.5C 400.5,243.5 402.5,243.5 404.5,243.5C 404.5,256.167 404.5,268.833 404.5,281.5C 403.669,269.674 403.169,257.674 403,245.5C 401.301,244.594 399.467,244.261 397.5,244.5C 397.5,242.167 397.5,239.833 397.5,237.5C 399.5,237.5 401.5,237.5 403.5,237.5C 403.198,234.941 403.532,232.607 404.5,230.5 Z"/></g>
<g><path style="opacity:1" fill="#878787" d="M 413.5,244.5 C 412.533,252.414 412.199,260.414 412.5,268.5C 411.834,264.681 411.501,260.681 411.5,256.5C 411.509,252.107 412.176,248.107 413.5,244.5 Z"/></g>
<g><path style="opacity:1" fill="#878787" d="M 435.5,255.5 C 439.614,256.826 444.114,257.493 449,257.5C 453.886,257.493 458.386,256.826 462.5,255.5C 463.404,256.209 463.737,257.209 463.5,258.5C 453.833,258.5 444.167,258.5 434.5,258.5C 434.263,257.209 434.596,256.209 435.5,255.5 Z"/></g>
<g><path style="opacity:1" fill="#909090" d="M 471.5,259.5 C 472.461,261.265 472.795,263.265 472.5,265.5C 459.788,264.854 447.455,265.52 435.5,267.5C 434.596,266.791 434.263,265.791 434.5,264.5C 446.833,264.5 459.167,264.5 471.5,264.5C 471.5,262.833 471.5,261.167 471.5,259.5 Z"/></g>
<g><path style="opacity:1" fill="#909090" d="M 388.5,255.5 C 389.495,266.321 389.828,277.321 389.5,288.5C 386.5,288.5 383.5,288.5 380.5,288.5C 380.5,278.5 380.5,268.5 380.5,258.5C 381.494,267.986 381.827,277.652 381.5,287.5C 383.833,287.5 386.167,287.5 388.5,287.5C 388.5,276.833 388.5,266.167 388.5,255.5 Z"/></g>
<g><path style="opacity:1" fill="#a2a2a2" d="M 469.5,272.5 C 471.424,272.711 471.757,273.377 470.5,274.5C 470.167,273.833 469.833,273.167 469.5,272.5 Z"/></g>
<g><path style="opacity:1" fill="#808080" d="M 248.5,274.5 C 249.167,274.5 249.833,274.5 250.5,274.5C 249.833,277.167 249.167,277.167 248.5,274.5 Z"/></g>
<g><path style="opacity:1" fill="#858585" d="M 415.5,280.5 C 417.5,280.5 419.5,280.5 421.5,280.5C 421.5,281.833 421.5,283.167 421.5,284.5C 420.596,283.791 420.263,282.791 420.5,281.5C 418.585,281.784 416.919,281.451 415.5,280.5 Z"/></g>
<g><path style="opacity:1" fill="#fedb4b" d="M 36.5,329.5 C 35.8333,330.167 35.8333,330.167 36.5,329.5 Z"/></g>
<g><path style="opacity:1" fill="#fedb4b" d="M 57.5,329.5 C 58.8333,330.167 58.8333,330.167 57.5,329.5 Z"/></g>
<g><path style="opacity:1" fill="#fedb46" d="M 177.5,329.5 C 178.833,330.167 178.833,330.167 177.5,329.5 Z"/></g>
</svg>
